<?xml version="1.0" encoding="utf-8"?>
<!-- Generator: Adobe Illustrator 16.0.0, SVG Export Plug-In . SVG Version: 6.00 Build 0)  -->
<!DOCTYPE svg PUBLIC "-//W3C//DTD SVG 1.1//EN" "http://www.w3.org/Graphics/SVG/1.1/DTD/svg11.dtd">
<svg version="1.1" id="Layer_1" xmlns="http://www.w3.org/2000/svg" xmlns:xlink="http://www.w3.org/1999/xlink" x="0px" y="0px"
	 width="22.992px" height="22.17px" viewBox="0 0 22.992 22.17" enable-background="new 0 0 22.992 22.17" xml:space="preserve">
<path fill="#1E63B3" d="M22.904,10.749l-1.295,1.401L11.496,2.696L1.382,12.135l-1.294-1.401L11.496,0.085L22.904,10.749
	L22.904,10.749z M19.102,12.421L17.2,22.085H5.792l-1.901-9.664L11.496,5.3L19.102,12.421L19.102,12.421z M12.446,18.259
	c0-0.529-0.426-0.957-0.951-0.957s-0.951,0.428-0.951,0.957c0,0.527,0.426,0.956,0.951,0.956S12.446,18.786,12.446,18.259
	L12.446,18.259z M13.398,13.477c0-1.057-0.852-1.913-1.902-1.913c-1.049,0-1.901,0.856-1.901,1.913c0,1.056,0.852,1.913,1.901,1.913
	C12.546,15.389,13.398,14.532,13.398,13.477L13.398,13.477z"/>
</svg>
