<svg xmlns="http://www.w3.org/2000/svg" width="26" height="25" viewBox="0 0 26 25">
  <path fill="#ffffff" fill-rule="evenodd" d="M115,13.0833333 C120.74375,13.0833333 125.416667,17.75625 125.416667,23.5 C125.416667,29.24375 120.74375,33.9166667 115,33.9166667 C109.25625,33.9166667 104.583333,29.24375 104.583333,23.5 C104.583333,17.75625 109.25625,13.0833333 115,13.0833333 L115,13.0833333 Z M115,11 C108.096875,11 102.5,16.596875 102.5,23.5 C102.5,30.403125 108.096875,36 115,36 C121.903125,36 127.5,30.403125 127.5,23.5 C127.5,16.596875 121.903125,11 115,11 L115,11 Z M116.675,20.8708333 L115,15.1666667 L113.321875,20.871875 C112.875,21.1583333 112.514583,21.5572917 112.260417,22.025 L106.666667,23.5 L112.260417,24.975 C112.513542,25.4427083 112.873958,25.8427083 113.321875,26.128125 L115,31.8333333 L116.685417,26.1260417 C117.13125,25.8395833 117.488542,25.4395833 117.741667,24.9708333 L123.333333,23.5 L117.741667,22.028125 C117.4875,21.5572917 117.125,21.1572917 116.675,20.8708333 L116.675,20.8708333 Z M115,25.0625 C114.1375,25.0625 113.4375,24.3625 113.4375,23.5 C113.4375,22.6375 114.1375,21.9375 115,21.9375 C115.8625,21.9375 116.5625,22.6375 116.5625,23.5 C116.5625,24.3625 115.8625,25.0625 115,25.0625 L115,25.0625 Z M120.46875,28.96875 L117.788542,27.2614583 C118.159375,26.9864583 118.486458,26.6583333 118.7625,26.2885417 L120.46875,28.96875 L120.46875,28.96875 Z M117.717708,19.6864583 L120.467708,18.0322917 L118.813542,20.78125 C118.511458,20.3572917 118.141667,19.9885417 117.717708,19.6864583 L117.717708,19.6864583 Z M112.285417,27.3166667 L109.53125,28.96875 L111.186458,26.2177083 C111.488542,26.6427083 111.859375,27.0135417 112.285417,27.3166667 L112.285417,27.3166667 Z M111.238542,20.7125 L109.532292,18.0322917 L112.2125,19.7385417 C111.840625,20.0135417 111.5125,20.3416667 111.238542,20.7125 L111.238542,20.7125 Z" transform="translate(-102 -11)"/>
</svg>
