<?xml version="1.0" encoding="utf-8"?>
<!-- Generator: Adobe Illustrator 16.0.0, SVG Export Plug-In . SVG Version: 6.00 Build 0)  -->
<!DOCTYPE svg PUBLIC "-//W3C//DTD SVG 1.1//EN" "http://www.w3.org/Graphics/SVG/1.1/DTD/svg11.dtd">
<svg version="1.1" id="Layer_1" xmlns="http://www.w3.org/2000/svg" xmlns:xlink="http://www.w3.org/1999/xlink" x="0px" y="0px"
	 width="19.875px" height="22px" viewBox="0 0 19.875 22" enable-background="new 0 0 19.875 22" xml:space="preserve">
<path fill="#8C8C8C" d="M18.267,6.013h-2.455V5.864C15.81,2.633,13.176,0,9.938,0c-3.24,0-5.873,2.633-5.873,5.864v0.148H1.609
	L0.173,22h19.529L18.267,6.013L18.267,6.013z M9.938,0.719c2.14,0,3.981,1.314,4.759,3.174c-1.028-1.535-2.773-2.549-4.759-2.549
	c-1.982,0-3.73,1.014-4.759,2.553C5.959,2.034,7.799,0.719,9.938,0.719z M5.153,6.013C5.632,3.813,7.597,2.16,9.94,2.16
	c2.347,0,4.307,1.652,4.788,3.853H5.153z"/>
</svg>
