<?xml version="1.0" encoding="utf-8"?>
<!-- Generator: Adobe Illustrator 16.0.0, SVG Export Plug-In . SVG Version: 6.00 Build 0)  -->
<!DOCTYPE svg PUBLIC "-//W3C//DTD SVG 1.1//EN" "http://www.w3.org/Graphics/SVG/1.1/DTD/svg11.dtd">
<svg version="1.1" id="Layer_1" xmlns="http://www.w3.org/2000/svg" xmlns:xlink="http://www.w3.org/1999/xlink" x="0px" y="0px"
	 width="20.397px" height="22px" viewBox="0 0 20.397 22" enable-background="new 0 0 20.397 22" xml:space="preserve">
<g>
	<path fill="none" d="M20.398,17.652c0-3.442-4.446-6.232-10.088-6.232c-5.641,0-10.214,2.791-10.214,6.232"/>
	<path fill="#8C8C8C" d="M10.311,11.425c3.103,0,5.618-2.558,5.618-5.712S13.413,0,10.311,0S4.693,2.558,4.693,5.712
		S7.208,11.425,10.311,11.425L10.311,11.425z"/>
	<path fill="none" d="M20.397,17.652v3.408c0,0.305-0.102,0.746-0.398,0.746H0.623c-0.29,0-0.447-0.445-0.447-0.746v-3.408"/>
	<path fill="#8C8C8C" d="M10.116,21.75c4.375,0,9.765,0.945,9.765-0.844c0-0.98,1.149-3.814-0.716-5.961
		c-1.546-1.778-5.738-3.007-9.151-3.007c-3.65,0-7.75,1.744-9.098,3.686c-1.434,2.066-0.755,4.359-0.755,5.283
		C0.161,22.695,5.741,21.75,10.116,21.75z"/>
</g>
</svg>
