<svg xmlns="http://www.w3.org/2000/svg" width="228" height="110" viewBox="0 0 228 110">
  <g fill="none" fill-rule="evenodd">
    <g transform="translate(0 5)">
      <circle cx="40" cy="40" r="7" stroke="#EB217E" stroke-width="3"/>
      <circle cx="33.5" cy="80.5" r="5.5" stroke="#F7E6C4" stroke-width="3"/>
      <circle cx="37" cy="3" r="3" fill="#5F86DA"/>
      <circle cx="2" cy="16" r="2" fill="#F5A623"/>
      <g fill="#5F86D9" transform="translate(2 47)">
        <rect width="3" height="14" x="6" rx="1.5"/>
        <rect width="3" height="14" x="6" transform="rotate(-90 7.5 7)" rx="1.5"/>
      </g>
      <g transform="translate(189 4)">
        <circle cx="5.5" cy="40.5" r="5.5" stroke="#EE65A4" stroke-width="3"/>
        <circle cx="9" cy="3" r="3" fill="#F7E6C4"/>
        <circle cx="36" cy="59" r="3" fill="#F5A623"/>
        <g fill="#F5A623" transform="translate(3 72)">
          <rect width="3" height="14" x="6" rx="1.5"/>
          <rect width="3" height="14" x="6" transform="rotate(-90 7.5 7)" rx="1.5"/>
        </g>
        <g fill="#53CAE3" transform="translate(26 17)">
          <rect width="2" height="9" x="4" rx="1"/>
          <rect width="2" height="9" x="4" transform="rotate(-90 5 4.5)" rx="1"/>
        </g>
      </g>
    </g>
    <g transform="translate(63)">
      <path fill="#F8E6C4" d="M81.3127175,106.673548 L20.2644368,106.673548 C16.3179105,106.673548 12.8918053,103.958452 11.9919105,100.117935 L2.7092614,60.4934194 L98.866086,60.4934194 L89.5852439,100.117935 C88.6853491,103.958452 85.2592439,106.673548 81.3127175,106.673548"/>
      <path fill="#EE64A4" d="M88.0810825,45.5654452 L88.1045737,45.5600258 L87.9509772,45.5058323 L87.9509772,45.5040258 C87.9979596,45.5238968 88.0575912,45.5401548 88.1045737,45.5600258 C88.0792754,45.2962839 88.0846965,45.0668645 88.0485561,44.7922839 C84.7182228,19.8596387 67.6780474,23.5393806 56.0986789,19.4838968 C44.5211175,15.4284129 52.9888018,4.23925161 52.9888018,4.23925161 C33.0592053,-0.867587097 17.7338895,23.1636387 17.7338895,23.1636387 C3.91201228,29.1718968 12.9272228,44.7922839 12.9272228,44.7922839 C6.67855614,49.788929 5.6341,55.5117677 6.53760877,60.4939613 L21.5033281,60.4939613 L34.1416088,60.4939613 L34.161486,60.4939613 L42.3671526,60.4939613 L92.3944333,60.4939613 C94.4526263,51.5791226 93.0268895,47.7133161 88.0810825,45.5654452"/>
      <path fill="#010202" d="M77.1347123,59.0531355 C77.0967649,59.5607484 77.1112211,60.0304258 77.1401333,60.4946839 L92.3949754,60.4946839 C94.4712386,51.4985548 93.0057474,47.6417806 87.9497123,45.5047484 C87.9985018,45.5246194 88.0581333,45.539071 88.1051158,45.5607484 C88.0780105,45.2970065 88.0852386,45.0657806 88.0490982,44.7930065 C84.7187649,19.8603613 67.6785895,23.5401032 56.0992211,19.4846194 L56.0992211,19.4846194 L56.097414,19.4846194 C56.097414,19.4846194 78.6273088,39.5777806 77.1347123,59.0531355" opacity=".3"/>
      <path fill="#010202" d="M58.3039632,106.673548 L81.3127175,106.673548 C85.2592439,106.673548 88.6853491,103.958452 89.5852439,100.117935 L98.866086,60.4934194 L77.140314,60.4934194 C77.140314,60.4934194 77.4746123,94.8250323 58.3039632,106.673548" opacity=".3"/>
      <path fill="#2E2E30" d="M86.9451912,99.4992258 C86.3289982,102.127613 84.0142088,103.964774 81.3127175,103.964774 L78.3329456,103.964774 L83.2263491,63.204 L95.4472088,63.204 L86.9451912,99.4992258 Z M72.8721386,103.964774 L61.8782439,103.964774 L63.5732263,63.204 L77.7655421,63.204 L72.8721386,103.964774 Z M56.4499632,103.964774 L45.1253842,103.964774 L43.4285947,63.204 L58.1467526,63.204 L56.4499632,103.964774 Z M28.7032088,103.964774 L23.8098053,63.204 L38.0021211,63.204 L39.6989105,103.964774 L28.7032088,103.964774 Z M20.2644368,103.964774 C17.5629456,103.964774 15.2463491,102.127613 14.6301561,99.4992258 L6.1281386,63.204 L18.3508053,63.204 L23.2442088,103.964774 L20.2644368,103.964774 Z M12.763507,48.5825806 C12.862893,48.6819355 12.9839632,48.7993548 13.0905772,48.904129 C13.175507,48.9872258 13.2586298,49.0703226 13.3489807,49.1570323 C13.5640158,49.3683871 13.7971211,49.5905806 14.0410684,49.8218065 C14.1386474,49.912129 14.2326123,50.0024516 14.3338053,50.0963871 C14.5958228,50.3402581 14.8741035,50.5949677 15.1650333,50.8569032 C15.2698404,50.9508387 15.3710333,51.0429677 15.4794544,51.1405161 C15.7884544,51.4150968 16.1155246,51.6987097 16.4534368,51.9895484 C16.5654719,52.0852903 16.672086,52.1774194 16.7859281,52.2749677 C17.1437175,52.5784516 17.5213842,52.8909677 17.913507,53.2089032 C18.0255421,53.3010323 18.1357702,53.3913548 18.2514193,53.4852903 C18.6652263,53.8194839 19.0989105,54.1590968 19.5470509,54.504129 C19.6572789,54.5890323 19.762086,54.672129 19.8741211,54.7570323 C20.3475596,55.1183226 20.8426825,55.4850323 21.3522614,55.8553548 C21.4534544,55.9294194 21.5510333,56.0016774 21.6540333,56.0775484 C22.1961386,56.4677419 22.7617351,56.8615484 23.3435947,57.2589677 C23.4249105,57.3149677 23.5044193,57.3709677 23.5875421,57.4269677 C23.7628228,57.5461935 23.9254544,57.6636129 24.1061561,57.7828387 L8.96877018,57.7828387 C8.87480526,54.3325161 10.1270684,51.2940645 12.763507,48.5825806 L12.763507,48.5825806 Z M13.2297175,31.1647742 C13.9037351,29.1379355 15.2879105,27.5464516 17.4400684,26.3307097 C17.5358404,26.3993548 17.6641386,26.487871 17.7689456,26.5619355 C17.8864018,26.6450323 18.0002439,26.7245161 18.1303491,26.8148387 C18.3905596,26.9972903 18.6814895,27.1941935 18.9904895,27.4019355 C19.1386649,27.5012903 19.2723842,27.5916129 19.4295947,27.6963871 C19.8470158,27.9727742 20.3041912,28.2672258 20.7957,28.5779355 C20.8697877,28.6230968 20.9312263,28.6646452 21.0071211,28.7116129 C21.5763316,29.0692903 22.1997526,29.4468387 22.8629281,29.8388387 C23.0472439,29.9472258 23.2514368,30.0628387 23.4429807,30.1730323 C23.9417175,30.463871 24.4549105,30.7565161 25.0006298,31.06 C25.2716825,31.2117419 25.5553842,31.3634839 25.8372789,31.5170323 C26.354086,31.7970323 26.8853491,32.0788387 27.4419105,32.367871 C27.7599456,32.5340645 28.0815947,32.6984516 28.414086,32.8664516 C28.9941386,33.1590968 29.5976825,33.4535484 30.2156825,33.7516129 C30.5535947,33.9141935 30.8842789,34.0749677 31.2330333,34.2393548 C31.9612614,34.5789677 32.7202088,34.9203871 33.4954193,35.2618065 C33.7682789,35.3810323 34.0248754,35.5002581 34.3031561,35.6212903 C35.3711035,36.080129 36.4788053,36.5389677 37.6334895,36.9923871 C37.8575596,37.0790968 38.097893,37.164 38.3255772,37.2525161 C39.2634193,37.6138065 40.2211386,37.9714839 41.2149982,38.3219355 C41.6324193,38.4700645 42.0642965,38.6127742 42.4925596,38.7590968 C43.3346298,39.0463226 44.1893491,39.3299355 45.0711737,39.6063226 C45.5644895,39.7616774 46.0650333,39.9134194 46.5691912,40.0651613 C47.4401737,40.3270968 48.3292263,40.58 49.2345421,40.8274839 C49.7567702,40.972 50.2771912,41.1147097 50.8102614,41.2538065 C51.7914719,41.5085161 52.7979807,41.7487742 53.8153316,41.9854194 C54.2996123,42.0974194 54.7712439,42.2148387 55.2627526,42.3232258 C56.7806474,42.6556129 58.3310684,42.9699355 59.9302789,43.2535484 C64.0502789,43.9869677 67.7347877,44.5180645 71.0777702,44.9805161 C71.7680509,45.0762581 72.4637526,45.1738065 73.123314,45.264129 C73.1431912,45.2659355 73.1612614,45.2695484 73.1829456,45.2713548 C74.1045246,45.3978065 74.9809281,45.5188387 75.8356474,45.6380645 C76.0886298,45.6741935 76.3325772,45.7103226 76.5783316,45.7446452 C77.2830684,45.8458065 77.9534719,45.9451613 78.6094193,46.0463226 C78.8371035,46.0824516 79.0756298,46.1167742 79.2997,46.1529032 C80.0459982,46.272129 80.7471211,46.3931613 81.4229456,46.5196129 C81.7048404,46.572 81.9686649,46.6261935 82.2379105,46.6803871 C82.6589456,46.7652903 83.0619105,46.8538065 83.4522263,46.944129 C83.725086,47.0073548 83.9997526,47.0705806 84.2581561,47.1374194 C84.8165246,47.280129 85.3477877,47.4300645 85.8320684,47.5926452 C85.9748228,47.6396129 86.095893,47.6956129 86.2332263,47.7443871 C87.8360509,48.3296774 89.0160333,49.0468387 89.6828228,50.0096774 C90.7055947,51.4945806 90.8736474,53.9910968 90.1887877,57.7828387 L34.8091211,57.7828387 C31.200507,55.9312258 28.0653316,53.9621935 25.4126298,52.0870968 C25.3493842,52.0419355 25.2843316,51.9967742 25.221086,51.9516129 C24.7729456,51.6336774 24.3446825,51.3175484 23.9254544,51.0068387 C23.8206474,50.9273548 23.7122263,50.8496774 23.6092263,50.772 C23.2225246,50.4793548 22.8502789,50.1939355 22.4888754,49.9103226 C22.3678053,49.8163871 22.2467351,49.7224516 22.1292789,49.6285161 C21.7913667,49.3593548 21.4642965,49.0956129 21.1498754,48.8372903 C21.0269982,48.7379355 20.9077351,48.6385806 20.7884719,48.5392258 C20.4921211,48.2917419 20.2029982,48.047871 19.9283316,47.8130323 C19.8108754,47.711871 19.6988404,47.6125161 19.5849982,47.5131613 C19.3265947,47.2891613 19.0736123,47.0669677 18.836893,46.8538065 C18.7230509,46.7526452 18.6200509,46.6569032 18.5116298,46.5575484 C18.2929807,46.3588387 18.0725246,46.1583226 17.8737526,45.9722581 C17.7761737,45.880129 17.6894368,45.7970323 17.5954719,45.7085161 C17.2232263,45.3526452 16.8889281,45.0274839 16.5961912,44.7348387 C16.5275246,44.6661935 16.4444018,44.5867097 16.3811561,44.519871 C16.2962263,44.4367742 16.2329807,44.3699355 16.157086,44.2904516 C16.0342088,44.1658065 15.9077175,44.0357419 15.8047175,43.9273548 C15.750507,43.8695484 15.7089456,43.8243871 15.6583491,43.772 C15.5571561,43.6636129 15.4541561,43.5534194 15.3764544,43.4685161 C15.3493491,43.4378065 15.3258579,43.4143226 15.3023667,43.3854194 C15.2463491,43.3258065 15.2011737,43.2752258 15.1614193,43.231871 C14.5343842,42.0378065 11.6015947,36.0548387 13.2297175,31.1647742 L13.2297175,31.1647742 Z M48.6906298,6.28270968 C47.6172614,8.67806452 46.7408579,11.9224516 47.7003842,15.1018065 C48.6653316,18.3010323 51.1897351,20.6367742 55.2031211,22.0421935 C57.9389456,22.9996129 60.9223316,23.5505806 63.8063316,24.0834839 C72.9895947,25.7797419 81.7012263,27.3892903 84.7641211,41.6729032 C84.5165596,41.6150968 84.2382789,41.5663226 83.9834895,41.5103226 C83.9184368,41.4976774 83.8497702,41.4832258 83.7865246,41.4705806 C82.9390333,41.2917419 82.0409456,41.1219355 81.0976825,40.9611613 C80.945893,40.935871 80.7922965,40.9087742 80.6387,40.8834839 C79.7514544,40.7389677 78.8190333,40.5944516 77.8432439,40.4535484 C77.6643491,40.4264516 77.4890684,40.3993548 77.3065596,40.3740645 C76.211507,40.2169032 75.0712789,40.0597419 73.8587702,39.8935484 C73.3799105,39.8285161 72.8703316,39.7562581 72.3752088,39.6894194 C68.9382614,39.216129 65.1308754,38.6741935 60.8789632,37.9190968 C59.3935947,37.6553548 57.9534018,37.3609032 56.5367,37.0501935 C56.1030158,36.9562581 55.6801737,36.8532903 55.2519105,36.7539355 C54.267086,36.5263226 53.2967175,36.2914839 52.3480333,36.0458065 C51.898086,35.9283871 51.4517526,35.8109677 51.0108404,35.6899355 C50.045893,35.428 49.1026298,35.1552258 48.1774368,34.8752258 C47.8377175,34.7740645 47.4871561,34.6747097 47.1528579,34.5699355 C45.9150509,34.1833548 44.7097702,33.7877419 43.5478579,33.3794839 C43.3779982,33.319871 43.2207877,33.2584516 43.0527351,33.1988387 C42.0624895,32.8465806 41.0993491,32.4889032 40.1669281,32.1258065 C39.8163667,31.9903226 39.4766474,31.8530323 39.1351211,31.7157419 C38.3906298,31.4176774 37.6624018,31.1196129 36.9558579,30.8179355 C36.6287877,30.6788387 36.2981035,30.5379355 35.9782614,30.3988387 C35.217507,30.0646452 34.4820509,29.7322581 33.770086,29.399871 C33.5677,29.3059355 33.3544719,29.212 33.157507,29.1180645 C32.2594193,28.6917419 31.402893,28.2708387 30.5879281,27.8553548 C30.4018053,27.7614194 30.2319456,27.6692903 30.0494368,27.5753548 C29.4278228,27.2538065 28.826086,26.935871 28.2568754,26.6251613 C28.0183491,26.4950968 27.7870509,26.3686452 27.5575596,26.2403871 C27.0624368,25.9658065 26.5871912,25.6966452 26.1354368,25.4347097 C25.9384719,25.3209032 25.736086,25.2034839 25.5481561,25.0932903 C25.0132789,24.7789677 24.5091211,24.4736774 24.0429105,24.1846452 C23.9832789,24.1485161 23.9146123,24.1069677 23.8549807,24.0708387 C23.3201035,23.7384516 22.8358228,23.4259355 22.3967175,23.1369032 C22.2955246,23.071871 22.2105947,23.0140645 22.1148228,22.9508387 C21.8925596,22.8027097 21.6974018,22.6708387 21.5040509,22.5371613 C25.2698754,17.5567742 35.8047877,5.43367742 48.6906298,6.28270968 L48.6906298,6.28270968 Z M100.989332,58.8125161 C100.474332,58.1621935 99.6937,57.7846452 98.866086,57.7846452 L95.6640509,57.7846452 C96.399507,52.9415484 95.9188404,49.503871 94.1425421,46.9314839 C93.2516825,45.639871 92.068086,44.6517419 90.6441561,43.8406452 C87.6264368,22.9851613 74.9791211,20.6367742 64.7911561,18.7544516 C61.9848579,18.2378065 59.3357702,17.7464516 56.9956825,16.9263226 C54.7134193,16.127871 53.3328579,14.9916129 52.8937526,13.5482581 C52.0661386,10.8367742 54.2454018,7.08477419 55.1507175,5.87445161 C55.6982439,5.15006452 55.8482263,4.20167742 55.5482614,3.3436129 C55.2501035,2.48916129 54.5399456,1.83883871 53.6617351,1.61303226 C33.7628579,-3.47935484 18.6381211,17.0220645 15.8860333,21.0522581 C11.9322789,22.9652903 9.29403333,25.7905806 8.07610351,29.4829677 C6.22391053,35.092 8.24957719,41.103871 9.59219123,44.144129 C5.53182281,48.0099355 3.50254211,52.6543226 3.58566491,57.7846452 L2.71106842,57.7846452 C1.88345439,57.7846452 1.10101579,58.1621935 0.586015789,58.8125161 C0.072822807,59.4592258 -0.116914035,60.3082581 0.0710157895,61.112129 L9.35185789,100.734839 C10.5462965,105.827226 15.031314,109.384129 20.2644368,109.384129 L81.3127175,109.384129 C86.5440333,109.384129 91.0308579,105.827226 92.2252965,100.734839 L101.506139,61.112129 C101.692261,60.3082581 101.504332,59.4592258 100.989332,58.8125161 L100.989332,58.8125161 Z"/>
    </g>
  </g>
</svg>
