<?xml version="1.0" encoding="UTF-8" standalone="no"?>
<svg width="18px" height="30px" viewBox="0 0 18 30" version="1.1" xmlns="http://www.w3.org/2000/svg" xmlns:xlink="http://www.w3.org/1999/xlink">
    <!-- Generator: Sketch 3.8.3 (29802) - http://www.bohemiancoding.com/sketch -->
    <title>Fill 1187</title>
    <desc>Created with Sketch.</desc>
    <defs></defs>
    <g id="Page-1" stroke="none" stroke-width="1" fill="none" fill-rule="evenodd">
        <g id="Create-new-advert---Pt-1" transform="translate(-1155.000000, -276.000000)" fill="#9B9B9B">
            <g id="Group" transform="translate(249.000000, 244.000000)">
                <path d="M919.182204,61.2474476 L906.745193,48.8162068 C906.256963,48.3333405 906,47.6809572 906,47.0003211 C906,46.3196849 906.256963,45.6647332 906.745193,45.1844353 L919.182204,32.7531945 C920.184359,31.7489352 921.803227,31.7489352 922.831079,32.7531945 C923.833235,33.7574538 923.833235,35.3832752 922.831079,36.3849661 L912.192809,47.0003211 L922.831079,57.615676 C923.833235,58.6173669 923.833235,60.2457567 922.831079,61.2474476 C922.317153,61.7508615 921.649049,62 921.006641,62 C920.338537,62 919.69613,61.7508615 919.182204,61.2474476 Z" id="Fill-1187" transform="translate(914.791348, 47.000000) rotate(-180.000000) translate(-914.791348, -47.000000) "></path>
            </g>
        </g>
    </g>
</svg>